<svg version="1.1" id="Layer_1" xmlns="http://www.w3.org/2000/svg" xmlns:xlink="http://www.w3.org/1999/xlink" x="0px" y="0px"
	 width="100%" viewBox="0 0 500 500" enable-background="new 0 0 500 500" xml:space="preserve">
<path fill="#000000" opacity="0.000000" stroke="none" 
	d="
M332.000000,501.000000 
	C221.333359,501.000000 111.166718,501.000000 1.000059,501.000000 
	C1.000039,334.333405 1.000039,167.666794 1.000020,1.000149 
	C167.666565,1.000099 334.333130,1.000099 500.999756,1.000050 
	C500.999847,167.666519 500.999847,334.333038 500.999939,500.999786 
	C444.833344,501.000000 388.666656,501.000000 332.000000,501.000000 
M289.057617,323.036224 
	C296.765747,323.036224 304.473907,323.036224 312.182037,323.036224 
	C312.180634,322.728851 312.179230,322.421478 312.177826,322.114105 
	C304.088562,322.114105 295.999268,322.114105 287.137451,322.445190 
	C287.137451,324.216644 287.137451,325.988098 287.137451,327.756714 
	C293.387115,327.756714 299.424164,327.756714 305.461212,327.756714 
	C305.460602,327.500336 305.459961,327.243988 305.459351,326.987610 
	C299.704132,326.987610 293.948883,326.987610 288.218231,326.987610 
	C288.123260,326.083313 288.030060,325.588776 288.029541,325.094208 
	C288.028900,324.431519 288.100006,323.768768 289.057617,323.036224 
M405.872375,232.974670 
	C408.284058,231.988312 410.841919,231.257599 413.084412,229.975327 
	C431.731506,219.312836 433.818756,194.116806 415.608063,181.485840 
	C401.415771,171.642029 385.761841,163.904800 370.753265,155.238739 
	C355.779083,146.592545 340.825897,137.909470 325.812653,129.331635 
	C316.861267,124.217239 308.464874,118.455849 296.922729,119.689911 
	C288.273804,120.614624 278.320984,125.753891 275.058777,133.721649 
	C267.479370,152.233810 273.665192,164.337845 284.414185,171.515961 
	C297.971588,180.569519 312.687714,187.880966 326.841064,196.052902 
	C331.611206,198.807083 336.189392,201.893784 340.281860,205.219696 
	C335.618774,208.140610 331.025726,211.181168 326.279480,213.960052 
	C311.933380,222.359604 297.408508,230.460648 283.191315,239.070969 
	C275.008484,244.026718 271.285950,252.458420 271.327606,261.421112 
	C271.366364,269.765228 274.758972,277.358368 281.580139,283.466156 
	C288.864288,289.988525 300.752197,292.390900 308.747772,288.775665 
	C321.380096,283.063904 333.356598,275.860382 345.442871,268.992950 
	C360.452728,260.464386 375.334656,251.707428 390.180939,242.896011 
	C395.303619,239.855652 400.153900,236.356354 405.872375,232.974670 
M94.488960,177.025696 
	C92.600128,177.901871 90.717918,178.792648 88.821434,179.651917 
	C71.418930,187.536545 69.280823,213.355087 82.219101,224.450104 
	C87.330742,228.833511 93.389053,232.178497 99.232422,235.630524 
	C115.396820,245.179749 131.669205,254.546387 147.910156,263.965790 
	C160.226700,271.109100 172.706848,277.983917 184.842270,285.421875 
	C195.314240,291.840271 209.166092,291.558990 218.899368,284.702911 
	C229.516312,277.224396 232.093750,266.750793 229.672897,255.137100 
	C228.602585,250.002533 225.515228,243.738174 221.362442,241.069016 
	C204.788162,230.416016 187.399948,221.034363 170.400421,211.033569 
	C167.109695,209.097626 164.210999,206.495270 161.732895,203.824707 
	C179.055893,193.801727 196.370621,183.764389 213.704849,173.760895 
	C224.978256,167.255066 231.633102,157.720978 230.158600,143.849396 
	C228.009384,123.630714 203.195618,113.023537 187.810532,122.584167 
	C179.891281,127.505371 171.755188,132.083160 163.651001,136.700150 
	C143.787109,148.016739 123.864616,159.230576 104.019135,170.579193 
	C100.927223,172.347305 98.116119,174.606476 94.488960,177.025696 
M101.002235,344.439453 
	C101.002235,347.543488 101.002235,350.647522 101.002235,353.751556 
	C101.859016,352.794800 101.988495,351.838501 101.989594,350.882111 
	C102.003555,338.759369 102.101685,326.635254 101.934654,314.514801 
	C101.886581,311.025635 103.051422,309.666534 106.522377,309.963959 
	C108.920982,310.169495 111.351433,310.003448 113.767654,310.003448 
	C111.147278,308.997955 108.502464,309.236359 105.917931,308.943237 
	C101.824387,308.479034 100.844025,310.262115 100.929451,314.065979 
	C101.149376,323.858856 101.002525,333.659973 101.002235,344.439453 
M353.996918,360.386902 
	C353.996918,348.368469 353.996918,336.350006 353.996918,324.331573 
	C353.018097,338.283508 352.927307,352.231476 353.183594,366.173035 
	C353.205017,367.338074 355.564545,368.460114 356.837769,369.602112 
	C357.338806,369.095764 357.839813,368.589386 358.340851,368.083038 
	C351.940704,368.409882 354.589447,364.035706 353.996918,360.386902 
M105.994476,341.388153 
	C105.994476,344.007690 105.994476,346.627258 105.994476,349.246796 
	C106.226067,349.244019 106.457649,349.241211 106.689240,349.238434 
	C106.689240,337.855225 106.689240,326.472046 106.689240,315.088837 
	C106.457680,315.088196 106.226120,315.087585 105.994560,315.086945 
	C105.994560,323.530670 105.994560,331.974426 105.994476,341.388153 
M280.997925,323.991089 
	C280.706421,323.316040 280.414917,322.640991 279.904510,321.458954 
	C279.904510,332.887512 279.904510,343.582581 279.904510,354.277649 
	C280.266968,354.275818 280.629456,354.273987 280.991913,354.272125 
	C280.991913,344.482178 280.991913,334.692200 280.997925,323.991089 
M274.003235,336.507080 
	C274.003235,342.463287 274.003235,348.419495 274.003235,354.375732 
	C274.238586,354.373352 274.473938,354.370941 274.709290,354.368561 
	C274.709290,343.791534 274.709290,333.214478 274.709290,322.637421 
	C274.473938,322.633636 274.238586,322.629852 274.003235,322.626038 
	C274.003235,326.921448 274.003235,331.216827 274.003235,336.507080 
M425.006500,350.183105 
	C425.006500,351.549469 425.006500,352.915833 425.006500,354.282196 
	C426.003510,344.823730 426.010742,335.370605 425.993958,325.917542 
	C425.991974,324.789856 425.859161,323.662445 425.786987,322.534912 
	C425.526733,322.537109 425.266510,322.539337 425.006256,322.541565 
	C425.006256,331.445618 425.006256,340.349670 425.006500,350.183105 
z"/>
<path fill="#4486F2" opacity="1.000000" stroke="none" 
	d="
M161.131470,204.200333 
	C164.210999,206.495270 167.109695,209.097626 170.400421,211.033569 
	C187.399948,221.034363 204.788162,230.416016 221.362442,241.069016 
	C225.515228,243.738174 228.602585,250.002533 229.672897,255.137100 
	C232.093750,266.750793 229.516312,277.224396 218.899368,284.702911 
	C209.166092,291.558990 195.314240,291.840271 184.842270,285.421875 
	C172.706848,277.983917 160.226700,271.109100 147.910156,263.965790 
	C131.669205,254.546387 115.396820,245.179749 99.232422,235.630524 
	C93.389053,232.178497 87.330742,228.833511 82.219101,224.450104 
	C69.280823,213.355087 71.418930,187.536545 88.821434,179.651917 
	C90.717918,178.792648 92.600128,177.901871 95.283966,176.867828 
	C104.075775,176.341232 111.876648,176.403244 119.050606,181.057480 
	C125.993179,185.561600 133.231369,189.633240 140.492126,193.617035 
	C147.267746,197.334641 154.243698,200.687134 161.131470,204.200333 
z"/>
<path fill="#139D58" opacity="1.000000" stroke="none" 
	d="
M340.855286,204.828522 
	C336.189392,201.893784 331.611206,198.807083 326.841064,196.052902 
	C312.687714,187.880966 297.971588,180.569519 284.414185,171.515961 
	C273.665192,164.337845 267.479370,152.233810 275.058777,133.721649 
	C278.320984,125.753891 288.273804,120.614624 296.922729,119.689911 
	C308.464874,118.455849 316.861267,124.217239 325.812653,129.331635 
	C340.825897,137.909470 355.779083,146.592545 370.753265,155.238739 
	C385.761841,163.904800 401.415771,171.642029 415.608063,181.485840 
	C433.818756,194.116806 431.731506,219.312836 413.084412,229.975327 
	C410.841919,231.257599 408.284058,231.988312 405.225830,232.789307 
	C396.327179,233.500427 388.899475,231.405823 381.826660,227.068710 
	C371.912292,220.989136 361.811035,215.205460 351.665466,209.516769 
	C348.257324,207.605804 344.469543,206.371887 340.855286,204.828522 
z"/>
<path fill="#E74438" opacity="1.000000" stroke="none" 
	d="
M161.432190,204.012512 
	C154.243698,200.687134 147.267746,197.334641 140.492126,193.617035 
	C133.231369,189.633240 125.993179,185.561600 119.050606,181.057480 
	C111.876648,176.403244 104.075775,176.341232 95.627075,176.674255 
	C98.116119,174.606476 100.927223,172.347305 104.019135,170.579193 
	C123.864616,159.230576 143.787109,148.016739 163.651001,136.700150 
	C171.755188,132.083160 179.891281,127.505371 187.810532,122.584167 
	C203.195618,113.023537 228.009384,123.630714 230.158600,143.849396 
	C231.633102,157.720978 224.978256,167.255066 213.704849,173.760895 
	C196.370621,183.764389 179.055893,193.801727 161.432190,204.012512 
z"/>
<path fill="#F8BD08" opacity="1.000000" stroke="none" 
	d="
M340.568573,205.024109 
	C344.469543,206.371887 348.257324,207.605804 351.665466,209.516769 
	C361.811035,215.205460 371.912292,220.989136 381.826660,227.068710 
	C388.899475,231.405823 396.327179,233.500427 404.853943,232.835327 
	C400.153900,236.356354 395.303619,239.855652 390.180939,242.896011 
	C375.334656,251.707428 360.452728,260.464386 345.442871,268.992950 
	C333.356598,275.860382 321.380096,283.063904 308.747772,288.775665 
	C300.752197,292.390900 288.864288,289.988525 281.580139,283.466156 
	C274.758972,277.358368 271.366364,269.765228 271.327606,261.421112 
	C271.285950,252.458420 275.008484,244.026718 283.191315,239.070969 
	C297.408508,230.460648 311.933380,222.359604 326.279480,213.960052 
	C331.025726,211.181168 335.618774,208.140610 340.568573,205.024109 
z"/>
</svg>